# xmcd CD database file generated by OrangeCD 6.3
#
# Track frame offsets:
#	150
#	11819
#	24532
#	45182
#	60569
#	71982
#	91182
#	103769
#	115157
#	130519
#	145157
#	159407
#	180157
#
# Disc length: 2595 seconds
#
# Revision: 0
# Processed by: cddbd v1.5.2PL0 Copyright (c) Steve Scherf et al.
# Submitted via: OrangeCD 6.3
#
DISCID=9f0a210d
DTITLE=Jérôme Malaval - Jump on it!
DYEAR=2003
DGENRE=Country
TTITLE0=The Mad Russian
TTITLE1=First Rule Of Thumb
TTITLE2=My Favorite Things
TTITLE3=Dizzy Fingers
TTITLE4=Bluesland
TTITLE5=Emily
TTITLE6=Cascade
TTITLE7=Arkansas Traveler
TTITLE8=Grab Bag
TTITLE9=My Gypsy Heart
TTITLE10=First Born
TTITLE11=Dreaming Fairy Tales
TTITLE12=Over The Rainbow
EXTD=
EXTT0=
EXTT1=
EXTT2=
EXTT3=
EXTT4=
EXTT5=
EXTT6=
EXTT7=
EXTT8=
EXTT9=
EXTT10=
EXTT11=
EXTT12=
PLAYORDER=
